<?xml version="1.0" encoding="UTF-8" standalone="no"?>
<!-- Created with Inkscape (http://www.inkscape.org/) -->

<svg
   width="134.16345mm"
   height="38.852478mm"
   viewBox="0 0 134.16345 38.852478"
   version="1.1"
   id="svg5"
   inkscape:version="1.1.1 (3bf5ae0d25, 2021-09-20, custom)"
   sodipodi:docname="listen.svg"
   xmlns:inkscape="http://www.inkscape.org/namespaces/inkscape"
   xmlns:sodipodi="http://sodipodi.sourceforge.net/DTD/sodipodi-0.dtd"
   xmlns="http://www.w3.org/2000/svg"
   xmlns:svg="http://www.w3.org/2000/svg">
  <sodipodi:namedview
     id="namedview7"
     pagecolor="#505050"
     bordercolor="#eeeeee"
     borderopacity="1"
     inkscape:pageshadow="0"
     inkscape:pageopacity="0"
     inkscape:pagecheckerboard="0"
     inkscape:document-units="mm"
     showgrid="false"
     inkscape:zoom="0.55945567"
     inkscape:cx="165.33928"
     inkscape:cy="512.99865"
     inkscape:window-width="1920"
     inkscape:window-height="1039"
     inkscape:window-x="0"
     inkscape:window-y="0"
     inkscape:window-maximized="1"
     inkscape:current-layer="layer1" />
  <defs
     id="defs2" />
  <g
     inkscape:label="Layer 1"
     inkscape:groupmode="layer"
     id="layer1"
     transform="translate(-2.6223886,-12.999568)">
    <rect
       style="fill:#ffffff;stroke-width:2"
       id="rect185"
       width="134.16345"
       height="38.852478"
       x="2.6223886"
       y="12.999568" />
    <g
       id="g4333">
      <g
         data-name="Layer 2"
         id="g97"
         transform="matrix(0.22757825,0,0,0.22757825,60.336219,19.089125)"
         style="stroke-width:1.1626">
        <path
           d="M 69.55,26.35 64.88,48.72 A 0.57,0.57 0 0 1 64.2,49.16 L 61.28,48.55 A 0.57,0.57 0 0 1 60.84,47.87 L 65.51,25.5 a 0.57,0.57 0 0 1 0.25,-0.36 0.6,0.6 0 0 1 0.43,-0.08 l 2.92,0.61 a 0.57,0.57 0 0 1 0.44,0.68 z m 5.8,-2.94 a 15.18,15.18 0 0 0 -4,-0.28 1.48,1.48 0 0 0 -0.44,0.1 3.55,3.55 0 0 1 1.58,3.77 l -4.67,22.33 a 3.53,3.53 0 0 1 -2.34,2.67 15,15 0 0 0 6.77,1.6 c 0.3,0 0.6,0 0.89,0 l -2.43,13.46 a 3.52,3.52 0 0 0 2.1,3.87 l -3.22,11.43 a 1.5,1.5 0 0 0 1,1.85 1.48,1.48 0 0 0 0.41,0.06 1.5,1.5 0 0 0 1.44,-1.09 L 75.71,71.6 h 0.25 A 3.53,3.53 0 0 0 79.38,69 l 7.28,-25.82 a 15.26,15.26 0 0 0 0.47,-1.66 v 0 -0.1 a 15.26,15.26 0 0 0 -11.78,-18 z M 35.8,42.84 38.71,42.23 v 0 a 0.56,0.56 0 0 0 0.36,-0.25 0.57,0.57 0 0 0 0.08,-0.43 L 34.49,19.19 a 0.57,0.57 0 0 0 -0.56,-0.46 h -0.12 l -2.92,0.61 a 0.57,0.57 0 0 0 -0.44,0.68 l 4.67,22.36 a 0.57,0.57 0 0 0 0.68,0.46 z M 27.19,64.6 a 3.52,3.52 0 0 0 2.1,-3.87 L 26.87,47.22 c 0.3,0 0.59,0 0.89,0 A 15,15 0 0 0 34.52,45.62 3.57,3.57 0 0 1 32.19,43 L 27.51,20.64 a 3.55,3.55 0 0 1 1.57,-3.73 1.48,1.48 0 0 0 -0.44,-0.1 15.23,15.23 0 0 0 -15.8,18.32 v 0.1 0 a 15.27,15.27 0 0 0 0.47,1.66 l 7.28,25.82 A 3.52,3.52 0 0 0 24,65.3 h 0.25 l 5,17.91 a 1.5,1.5 0 0 0 1.44,1.09 1.48,1.48 0 0 0 0.41,-0.06 1.5,1.5 0 0 0 1,-1.85 z"
           id="path95"
           style="stroke-width:1.1626" />
      </g>
      <path
         d="m 35.906368,31.50418 v -1.529292 a 9.0910835,9.0910835 0 0 0 -18.182167,0 v 1.531938 a 2.9104166,2.9104166 0 0 0 -2.121958,2.788708 v 3.092979 a 2.9104166,2.9104166 0 0 0 2.910417,2.910417 h 1.976437 a 0.79374999,0.79374999 0 0 0 0.79375,-0.79375 v -7.326313 a 0.79374999,0.79374999 0 0 0 -0.79375,-0.79375 h -1.177396 v -1.410229 a 7.5035835,7.5035835 0 0 1 15.007167,0 v 1.410229 h -1.177396 a 0.79374999,0.79374999 0 0 0 -0.79375,0.79375 v 7.326313 a 0.79374999,0.79374999 0 0 0 0.79375,0.79375 h 1.976437 a 2.9104166,2.9104166 0 0 0 2.910417,-2.910417 V 34.295534 A 2.9104166,2.9104166 0 0 0 35.906368,31.50418 Z"
         id="path117"
         style="stroke-width:0.264583" />
      <g
         id="g142"
         style="stroke-width:0.216041"
         transform="matrix(1.224692,0,0,1.224692,101.29728,15.282717)">
        <g
           id="g140"
           style="stroke-width:0.216041">
          <circle
             cx="12.5"
             cy="16"
             r="2.5"
             id="circle134"
             style="stroke-width:0.216041" />
          <circle
             cx="12.5"
             cy="7.5"
             r="1"
             id="circle136"
             style="stroke-width:0.216041" />
          <path
             d="M 16,2.5 H 9 C 7.622,2.5 6.5,3.621 6.5,5 v 15 c 0,1.379 1.122,2.5 2.5,2.5 h 7 c 1.378,0 2.5,-1.121 2.5,-2.5 V 5 C 18.5,3.621 17.378,2.5 16,2.5 Z m -3.5,3 c 1.103,0 2,0.897 2,2 0,1.103 -0.897,2 -2,2 -1.103,0 -2,-0.897 -2,-2 0,-1.103 0.897,-2 2,-2 z m 0,14 C 10.57,19.5 9,17.93 9,16 c 0,-1.93 1.57,-3.5 3.5,-3.5 1.93,0 3.5,1.57 3.5,3.5 0,1.93 -1.57,3.5 -3.5,3.5 z"
             id="path138"
             style="stroke-width:0.216041" />
        </g>
      </g>
    </g>
  </g>
</svg>
